<?xml version="1.0" encoding="UTF-8"?>
<svg id="Layer_2" data-name="Layer 2" xmlns="http://www.w3.org/2000/svg" viewBox="0 0 224.02 298.23">
  <defs>
    <style>
      .cls-1 {
        fill: #30141f;
      }

      .cls-2 {
        fill: #2c1328;
      }

      .cls-3 {
        fill: #84354b;
      }

      .cls-4 {
        fill: #b56b60;
      }

      .cls-5 {
        fill: #71112b;
      }

      .cls-6 {
        fill: #130d11;
      }

      .cls-7 {
        fill: #070908;
      }

      .cls-8 {
        fill: #d35740;
      }

      .cls-9 {
        fill: #f0bfa1;
      }

      .cls-10 {
        fill: #a02738;
      }

      .cls-11 {
        fill: #937b8a;
      }

      .cls-12 {
        fill: #521323;
      }

      .cls-13 {
        fill: #962930;
      }

      .cls-14 {
        fill: #050606;
      }

      .cls-15 {
        fill: #c38184;
      }

      .cls-16 {
        fill: #f2e0c9;
      }

      .cls-17 {
        fill: #6d1031;
      }

      .cls-18 {
        fill: #643460;
      }

      .cls-19 {
        fill: #f3e1c9;
      }
    </style>
  </defs>
  <g id="Cherries">
    <g id="Right_Cherry" data-name="Right Cherry">
      <path class="cls-17" d="M147.29,203.57s-44.64-11.91-30.83,47.49c13.81,59.4,69.3,45.62,69.3,45.62,0,0,30.64-5.11,37.79-45.62,0,0,5.45-31.66-20.6-49.7,0,0-12.09-8.51-26.21-1.02s-17.66,5.44-29.45,3.23Z"/>
      <path class="cls-12" d="M161.33,209.52c-2.27-.34-5.19-.93-8.49-2.03-5.08-1.69-5.6-2.77-9.77-3.64,0,0-1.05-.22-8.75-.97h0s-18.61-1.64-20.51,26.7c-1.9,28.34,17.89,52.23,17.89,52.23,0,0,17.07,20.15,48.36,15.81,31.3-4.34,40.15-33.93,40.15-33.93,0,0,6.05-16.35,2.87-30.21-.2,2.89-1,8.37-4.71,13.76-7.1,10.33-18.96,11.8-20.93,12.01-2.69,0-14.37-.29-23.95-9.41-6.97-6.64-9.12-14.42-9.81-17.59-.66-2.63-1.26-5.56-1.69-8.74-.71-5.22-.83-9.95-.67-14Z"/>
      <path class="cls-14" d="M136.89,202.65c-3.76.06-9.31.78-14.06,4.37-13.8,10.42-8.49,35.66-7.05,42.52,1.45,6.9,5.7,27.1,24.66,39.57,11.35,7.46,22.77,8.73,28.47,8.96,0,0,39.65,3.21,51.57-42.75,0,0-16.51,33.87-48.51,16.85-32-17.02-28.77-62.65-28.77-62.65,0,0-.2-5.58-6.31-6.87Z"/>
      <path class="cls-15" d="M203.38,208.85s-7.91-20.51-29.62-2.13c0,0-6.98,9.96,2.21,25.02s27.74,7.4,27.74,7.4c0,0,10.98-5.02,7.57-17.7,0,0-4.09-9.87-7.91-12.6Z"/>
      <ellipse class="cls-16" cx="193.46" cy="211.63" rx="8.6" ry="6.8" transform="translate(-72.35 104.12) rotate(-25.55)"/>
      <path class="cls-19" d="M147.89,207.49c13.95,3.85,20.36,3.01,23.57,1.23.15-.08,2.48-1.46,5.79-2.92,2.72-1.2,5.29-2.11,7.61-2.8,1.18-.25,2.51-.46,3.99-.56,3.14-.2,5.84.18,7.88.65,0,0-8.68-.46-14.64,2.52-5.96,2.98-9.06,4.55-9.06,4.55,0,0-5.49,3.15-12.72,1.96,0,0-4.34-.89-6.43-1.87-.92-.49-1.91-.98-2.95-1.46-1.05-.49-2.07-.92-3.05-1.3Z"/>
      <path class="cls-7" d="M99.8,7.32s7.6,2.94,17.62,14.14c18.31,20.47,26.19,43.14,29.98,56.64,1.05,3.75,1.77,6.83,2.19,8.71,2.72,11.87,5.16,24.75,7.06,38.55,3.01,21.84,4.13,41.97,4.17,59.91,0,.67,0,1.78,0,2.45-.05,9.36-.34,11.13-.59,12.27-.29,1.36-.82,3.28-1.88,5.52,1.27.23,3.08.4,5.22.12,2.69-.35,4.75-1.26,6.02-1.95-.65-1.96-1.26-4.03-1.81-6.19-1.99-7.8-2.79-15.03-2.96-21.32,0,0-2.72-39.32-4.6-45.96-.64-4.51-1.38-9.4-2.24-14.62-.3-1.82-1.31-7.9-2.68-15.14-2.96-15.66-4.53-23.99-7.09-32.87-4.49-15.61-10.28-26.91-11.74-29.68-9.2-17.39-20.3-29.8-28.85-37.89l-7.83,7.32Z"/>
    </g>
    <g id="Left_Cherry" data-name="Left Cherry">
      <path class="cls-10" d="M88.23,157.11s-11.57-6.13-21.45-6.3c-9.87-.17-19.06,4.26-19.06,4.26,0,0-7.95,3.51-14.66,12.48-7.69,10.28-13.76,27.72-4.4,55.26,0,0,19.74,51.23,74.89,30.13,3.6-1.71,20.48-10.2,28.29-30.53,7.92-20.6.8-38.43-.73-42.03-.98-2.56-2.87-6.45-6.46-10.15-6.08-6.25-13.24-8.04-16.17-8.61,0,0-17.18-3.05-20.26-4.51Z"/>
      <path class="cls-1" d="M33.3,167.22c-3.07,4.78-8.61,14.89-9.41,28.78-1.1,19.18,7.57,33.04,10.64,37.5,2.31,3.4,14.62,20.73,37.18,24.12,11.93,1.79,21.67-1.07,26.8-3.03,1.42-.73,3.06-1.76,4.72-3.19,3.66-3.15,5.6-6.73,6.6-9.02,0,0-36.43.17-41.19-40.51,0,0-2.89-27.74,8.85-40.25,0,0-29.85-3.86-44.2,5.6Z"/>
      <path class="cls-6" d="M71.21,154s-15.74-2.41-28.54,7.68c-13.55,10.69-15.12,26.81-15.63,32.91-2.08,24.59,13.32,48.06,32.77,57.66,4.03,1.99,7.65,3.1,10.26,3.74,3.63.76,8.78,1.4,14.85.66,10.35-1.25,17.75-5.8,21.43-8.46,0,0-37.55,3.58-53-29.74-15.45-33.32,3.57-56.85,3.57-56.85,0,0,5.63-7.16,14.3-7.62Z"/>
      <path class="cls-5" d="M84.1,172.06s-5.68-.96-6.89-2.36c-.31-.23-.67-.47-1.08-.69-1.12-.6-2.18-.83-2.96-.92-.66,1.47-1.5,3.51-2.28,6.02-.75,2.41-2.28,7.91-2.48,16.52-.16,7.36-.33,14.8,3,23.6,1.5,3.96,4.56,10.46,10.9,17,2.58,2.22,6.34,4.98,11.36,7.23,6.42,2.89,12.24,3.74,16.09,4,0,0,6.64-12.38,5.87-18.26,0,0-22.65,2.61-33.32-23.49,0,0-4.98-18.64,1.79-28.66Z"/>
      <path class="cls-3" d="M57.25,168.17s1.45-12.26,17.11-9.28c0,0,8.77,1.28,13.87-1.79,0,0,2.36,1.09,19.01,4.29,0,0,1.34-.22,8.95,2.77,0,0-7.45-3.06-17.75,4.01s-20.43,2.04-20.43,2.04c0,0-11.06-5.87-20.77-2.04Z"/>
      <path class="cls-1" d="M74.62,162.55c3.32-.31,5.96-.1,7.79.16,2,.28,2.9.6,6.41,1.09,2.87.39,4.11.43,5.07.41,2.09-.03,3.44-.32,4.63-.51,2.06-.33,5.11-.58,9.16-.14-1.05.25-2.67.66-4.63,1.25-4.36,1.31-5.11,1.92-8.23,2.67-2.3.55-4.34.97-7.02.8-1.52-.09-3.17-.48-5.41-1.36-1.24-.65-2.5-1.33-3.79-2.05-1.38-.78-2.71-1.55-3.99-2.33Z"/>
      <path class="cls-13" d="M92.93,170.81s-5.49,1.7-8.58,1.02c0,0-11.24,20.09,4.29,39.06,0,0,12.27,15.4,27.47,13.36,0,0,2.92-22.21-7.9-37.02s-15.28-16.43-15.28-16.43Z"/>
      <path class="cls-8" d="M92.53,170.81s4.46-1.02,10.72-5.79,16.55,1.87,16.55,1.87c0,0,14.92,11.57,13.55,34.47,0,0-.09,18.55-17.66,22.89,0,0,5.92-32.17-23.15-53.45Z"/>
      <circle class="cls-9" cx="105.99" cy="181.13" r="10.09"/>
      <path class="cls-4" d="M97.86,175.17c-.2.26-3.59,4.72-1.68,9.88,1.61,4.35,5.75,5.82,6.92,6.23.85.3,2.16.75,3.83.46,1.43-.24,2.46-.9,3.01-1.33-.92-1.77-2.03-3.66-3.39-5.61-2.89-4.15-5.99-7.31-8.69-9.64Z"/>
      <path class="cls-7" d="M79.76,163.11s7.45,5.23,13.96,1.62c0,0-4.77.09-.47-8.98s24.17-54.21,30.81-128.51l-5.11-4.09s-5.87,91.15-30.89,134.81c0,0-3.19,5.06-8.3,5.15Z"/>
    </g>
    <g id="Left_Leaf" data-name="Left Leaf">
      <path class="cls-2" d="M47.72,21.28C15.38,37.96,10.95,47.15.4,86.98L113.81,21.28s-33.75-16.68-66.09,0Z"/>
      <path class="cls-11" d="M14,87.36c8.29,1.07,20.16,1.53,20.16,1.53,0,0,29.49.05,38.99-8.06,0,0,18.95-9.68,29.42-30.38,10.46-20.7,11.25-29.08,11.25-29.08L0,87.28s5.71-.99,14,.08Z"/>
    </g>
    <g id="Right_Leaf" data-name="Right Leaf">
      <path class="cls-18" d="M180.59,13.82c-8-5.31-15.86-6.4-19.68-6.68-4.67-.15-12.36.24-20.83,3.85-4.66,1.98-8.31,4.41-11,6.53l67.23,16.34c-1.28-3.49-5.35-13.15-15.73-20.05Z"/>
      <path class="cls-7" d="M129.08,17.53s8.85,15.06,20,20.26c11.15,5.19,21.45,4,21.45,4,2.04-.3,4.34-.76,6.82-1.47,2.95-.85,5.51-1.87,7.65-2.87,1.4-.54,2.86-1.06,4.38-1.56,2.41-.8,4.73-1.46,6.94-2.01l-67.23-16.34Z"/>
    </g>
  </g>
</svg>