<?xml version="1.0" encoding="UTF-8"?>
<svg id="Layer_2" data-name="Layer 2" xmlns="http://www.w3.org/2000/svg" viewBox="0 0 323.38 89.79">
  <defs>
    <style>
      .cls-1, .cls-2 {
        fill: #231f20;
      }

      .cls-2 {
        font-family: DidotLTPro-Roman, 'Didot LT Pro';
        font-size: 60px;
      }
    </style>
  </defs>
  <g id="Logo_4_With_Text" data-name="Logo 4 With Text">
    <path class="cls-1" d="M32.62,8.95c-.63-5.58-6.81-4.31-6.81-4.31,0,0-1.5-6.13-6.81-4.31-5.31,1.82-1.35,17.21-1.35,17.21,0,0,15.6-3.03,14.97-8.6Z"/>
    <path class="cls-1" d="M26.25,32.53c5.58-.63,4.31-6.81,4.31-6.81,0,0,6.13-1.5,4.31-6.81-1.82-5.31-17.21-1.35-17.21-1.35,0,0,3.03,15.6,8.6,14.97Z"/>
    <path class="cls-1" d="M2.71,26.16c.63,5.58,6.81,4.31,6.81,4.31,0,0,1.5,6.13,6.81,4.31,5.31-1.82,1.35-17.21,1.35-17.21,0,0-15.6,3.03-14.97,8.6Z"/>
    <path class="cls-1" d="M8.95,2.6c-5.58.63-4.31,6.81-4.31,6.81,0,0-6.13,1.5-4.31,6.81,1.82,5.31,17.21,1.35,17.21,1.35,0,0-3.03-15.6-8.6-14.97Z"/>
    <circle id="clover_center" data-name="clover center" class="cls-1" cx="17.56" cy="17.58" r="1.69"/>
    <path class="cls-1" d="M26.18,73.25s3.9,3.15,5.26,5.89c1.36,2.74,4.21,4.1,6,4.33,1.8.24,4.79,1.11,10.44.61l-.04-.9s-.66.01-1.49-.06c0,0-1.31-.14-2.5-.58-2.56-.93-4.77-3.74-4.92-3.94-.84-.76-1.95-1.62-3.35-2.42-1.78-1.02-3.44-1.59-4.72-1.92-.96-.26-1.92-.52-2.89-.78-.6-.08-1.2-.16-1.79-.24Z"/>
    <path class="cls-1" d="M6.77,32.51c-.1,0-.32,1.72-.85,8.73,0,0-2.59,32.25,22.51,32.8,1.55-.13,3.74-.44,6.24-1.28,0,0,5.2-1.74,9.6-5.68,5.46-4.89,9.53-15.01,9.08-27.16,0,0,.37-19.53-14.26-24.96,0,0-4.2-1.93-7.83-1.24l-.03.33s16.04-2.12,14.9,27.69-13.36,30.77-13.36,30.77c-1.88.41-4.43.68-7.3.11-9.03-1.8-13.35-10.31-14-11.64-.47-.94-1.11-2.35-1.75-4.12-.85-2.36-1.69-5.43-2.3-10.91-.13-1.15-.2-2-.27-2.83-.52-6.49-.24-10.6-.39-10.6Z"/>
    <text class="cls-2" transform="translate(58.06 71.86)"><tspan x="0" y="0">UATTRO</tspan></text>
  </g>
</svg>