<?xml version="1.0" encoding="UTF-8"?>
<svg id="Layer_2" data-name="Layer 2" xmlns="http://www.w3.org/2000/svg" viewBox="0 0 628.41 632">
  <defs>
    <style>
      .cls-1-5 {
        fill: #800020;
      }
    </style>
  </defs>
  <g id="gear-icon">
    <path id="gear-icon-2" data-name="gear-icon" class="cls-1-5" d="M574.84,299.91l53.56-42.84-33.92-96.4-66.06,3.57-42.44-48.2,8.52-62.48L399.29,7.15l-42.84,51.17-66.66-1.18L254.1,0l-101.16,35.71,7.15,65.45-42.84,50.59-72.6-16.07L0,232.09l55.35,44.63v62.48L0,382.04l27.68,94.62,74.09-8.92,44.63,49.99-12.49,67.84,91.04,46.41,44.63-57.12,66.06,3.57,37.5,53.56,98.19-32.13v-67.84l44.63-48.2,60.69,12.49,42.84-87.49-48.2-48.2,3.57-60.69v-.02ZM312.43,483.8c-91.7,0-166.03-74.33-166.03-166.03s74.33-166.03,166.03-166.03,166.03,74.33,166.03,166.03-74.33,166.03-166.03,166.03Z"/>
  </g>
</svg>