<?xml version="1.0" encoding="UTF-8"?>
<svg id="Layer_2" data-name="Layer 2" xmlns="http://www.w3.org/2000/svg" viewBox="0 0 530.13 655">
  <defs>
    <style>
      .cls-1-5 {
        fill: #800020;
      }
    </style>
  </defs>
  <g id="map-icon">
    <path id="map-icon-2" data-name="map-icon" class="cls-1-5" d="M454.26,79.81C345.95-35.73,146.96-24.52,54.03,104.98-13.47,193.82-12.58,312.54,28.41,392.11c33.36,69.76,83.12,138.04,135.95,192.8,12.31,12.9,26.48,27.23,40.08,39.49,17.21,15.78,36.91,29.65,60.51,30.59,24.06-.94,39.11-14.73,56.19-29.09,14.7-12.61,23.63-19.33,37.61-34.06,63.66-70.81,118.69-137.75,145.06-196.76,44.73-94.33,35.11-224.5-49.46-315.18l-.08-.11h0ZM268.91,395.8c-75.14,2.39-136.57-59.01-134.17-134.17,2.18-68.07,57.61-123.47,125.65-125.65,75.14-2.39,136.57,59.01,134.17,134.17-2.18,68.07-57.61,123.47-125.65,125.65Z"/>
  </g>
</svg>