<?xml version="1.0" encoding="UTF-8"?>
<svg id="Layer_2" data-name="Layer 2" xmlns="http://www.w3.org/2000/svg" viewBox="0 0 555.42 601">
  <defs>
    <style>
      .cls-1-5 {
        fill: #800020;
      }
    </style>
  </defs>
  <g id="Maple-Leaf">
    <g>
      <path class="cls-1-5" d="M421.74,416.48l133.67-107.7-29.01-14.32s-12.79-2.65-6.02-18.45,25.97-79.83,25.97-79.83c-21.28,4.61-42.55,9.24-63.83,13.84l-252.61,252.61,20.45-3.6s24.1-6.41,19.95,18.08l-6.02,123.89h26.36l-6.02-125.39s-2.26-22.6,23.35-16.19l121.24,21.46-17.33-47.07s-5.27-9.42,9.78-17.33h.05Z"/>
      <path class="cls-1-5" d="M108.11,396L378.76,125.35c5.79-28.78,10.6-51.92,10.6-51.92l-45.2,25.97c-2.14,1.66-5.86,3.94-9.78,3.12-4.36-.93-6.84-5.29-7.91-7.25-1.55-2.83-4.52-8.46-8.62-16.4l-126.38,126.38c1.57,8.03,3.12,16.05,4.7,24.08.16.52,1.51,5.13-1.39,8.92-1.73,2.26-4.06,3.03-5.02,3.26-3.92,1-8.35-.78-11.45-4.4-3.03-3.22-6.04-6.43-9.08-9.65l-120.47,120.47,59.33,48.07h0Z"/>
      <path class="cls-1-5" d="M453.65,204.09c-5.11-11.04-10.22-22.1-15.32-33.13l-57.62,62.89s-26.36,26.36-19.95-13.55c2.03-12.61,5.63-31.92,9.6-52.45l-243.42,243.42,13.89,11.24s7.16,3.76.75,15.44l-15.07,42.94,62.05-10.95L453.87,204.61c-.11-.18-.21-.36-.27-.5l.05-.02Z"/>
      <path class="cls-1-5" d="M29.76,294.48c-11.29,4.52-29.76,13.93-29.76,13.93l29.96,24.26,122.75-122.75c-12.13-12.86-24.24-25.72-36.37-38.58-3.83,9.78-6.7,17.54-8.53,22.51-4.01,10.97-5.79,16.37-10.97,18.7-3.6,1.62-7.39,1.07-10.01.36-26.06-5.56-52.13-11.13-78.19-16.69l27.48,83.98s4.9,9.78-6.41,14.32l.05-.05Z"/>
      <path class="cls-1-5" d="M306.29,56.35c-7.89-15.46-17.6-34.62-28.53-56.35l-49.57,97.92c-1.05,1.37-2.83,3.24-5.5,4.08-1.28.41-4.04,1-8.44-.71-6.25-2.42-24.54-12.88-48.57-28.25,6.75,34.55,13.5,69.12,20.23,103.66l120.36-120.36h.02Z"/>
    </g>
  </g>
</svg>