<?xml version="1.0" encoding="UTF-8"?>
<svg id="Layer_2" data-name="Layer 2" xmlns="http://www.w3.org/2000/svg" viewBox="0 0 141.64 95.14">
  <defs>
    <style>
      .cls-1 {
        fill: #d8302a;
      }

      .cls-2 {
        fill: #d96b5f;
      }

      .cls-3 {
        fill: #7a1236;
      }
    </style>
  </defs>
  <g id="Orange-Slice">
    <path class="cls-3" d="M4.24,45.97l-4.24,1.65s13.29,33.8,46.37,44.3c22.49,7.14,41.84.47,47.12-1.41,21.66-7.72,32.96-22.83,35.1-25.79,20.15-27.84,11.32-60.15,9.99-64.71l-3.77,1.35s19.55,60.11-42.01,85.27c-4.06,1.47-29.91,10.31-56.41-3.67C14.07,71.17,6.07,50.98,4.24,45.97Z"/>
    <path class="cls-1" d="M3.7,46.64L135.98.6s19.71,62.25-42.65,86.54c0,0-61.06,22.86-89.63-40.49Z"/>
    <path class="cls-2" d="M70.31,23.42L12.77,44.68s2.68,11.62,15.7,23.36l41.85-44.63Z"/>
    <path class="cls-2" d="M70.31,23.42l-38.91,46.92s13.79,10.72,23.87,11.74l15.04-58.67Z"/>
    <path class="cls-2" d="M70.31,23.42l-11.21,59.43s18.64,3.06,27.83-1.66l-16.62-57.77Z"/>
    <path class="cls-2" d="M70.31,23.42l23.26,55.48s14.17-5.49,22.47-16.09l-45.73-39.39Z"/>
    <path class="cls-2" d="M70.31,23.42l48.28,36.58s9.7-11.23,11.62-24.13l-59.9-12.46Z"/>
    <path class="cls-2" d="M70.31,23.42l60.66,8.63s2.81-16.85-2.04-27.83l-58.62,19.2Z"/>
  </g>
</svg>