<?xml version="1.0" encoding="UTF-8"?>
<svg id="Layer_2" data-name="Layer 2" xmlns="http://www.w3.org/2000/svg" viewBox="0 0 383.41 396.92">
  <defs>
    <style>
      .cls-1-3 {
        fill: #d59d97;
      }

      .cls-2-3 {
        fill: #fff;
      }

      .cls-3-3 {
        fill: #b12e34;
      }

      .cls-4-3 {
        fill: #8c2327;
      }

      .cls-5-3 {
        fill: #a51c2a;
        stroke: #000;
        stroke-miterlimit: 10;
        stroke-width: 2px;
      }

      .cls-6-3 {
        fill: #fbead5;
      }

      .cls-7-3 {
        fill: #af2832;
      }
    </style>
  </defs>
  <g id="Pomegranet_Top" data-name="Pomegranet Top">
    <path class="cls-7-3" d="M17.68,26.21s38.81,19.06,23.32,34.81c0,0-24.51,19.74-27.57,25.49s-20.09,20.55-10.55,56.13,19.46,47.83,19.46,47.83c0,0,29.14,42.72,94.76,25.11l4.09,4.98,6.13-4.34,6,3.19,3.45-6.64,6.64-.89-.77-4.34s62.64-27.83,54.98-84.15-32.85-70.45-32.85-70.45c0,0-16.51-17.7-59.57-15.15,0,0-34.38,7.66-15.32-37.11,0,0-13.45,4.77-18.38,24.51,0,0-15.83-24.85-21.11-25.19,0,0-4.77,18.55-.34,33.7,0,0-16.34-14.47-32.34-7.49Z"/>
    <path class="cls-2-3" d="M165.42,75.4s-11.91-15.66-34.21-14.13c0,0-12.77.85-.68,12.6,0,0,23.66,15.32,29.62,31.15,5.53,10.1,9.63,14.79,12.3,14.09,1.22-.32,2.15-1.79,2.77-4.38.71-2.7,1.25-5.79,1.34-9.21.41-14.73-7.52-25.72-11.13-30.11Z"/>
    <path class="cls-4-3" d="M38.63,62.95S-11.51,92.43,2.87,142.64c14.38,50.21,28.63,57.56,28.63,57.56,0,0,37.08,30.21,76.71,17.45-7.01-.58-16.3-2.2-26.39-6.52-21.78-9.34-33.81-25.55-38.77-33.25-5.92-9.71-19.12-34.39-17.36-67.6,1.13-21.35,8.01-37.77,12.95-47.32Z"/>
  </g>
  <g id="Pomegranet_Bottom" data-name="Pomegranet Bottom">
    <path class="cls-3-3" d="M300.66,163.74s16.6,48.77-14.81,38.81c-31.4-9.96-57.19,1.34-57.19,1.34,0,0-69.45,31.6-57.96,105.38,0,0,6.64,41.87,51.57,65.87,0,0,16.6,3.32,23.23,9.45,0,0,54.38,30.13,94.98-3.83,40.6-33.96,42.64-79.15,42.64-79.15,0,0,5.87-33.96-35.49-68.94,0,0-26.55-14.55,21.45-31.4,0,0-14.81-6.13-26.81-1.28l2.55-27.57s-23.49,14.04-24.26,16.85-1.02-15.32-19.91-25.53Z"/>
    <path class="cls-1-3" d="M224.54,375.66l-3.04,3.7,9.32,1.91.64,5.23,6.13-1.66,7.28,5.49.64-5.74s-8.74-7.66-20.96-8.94Z"/>
    <path class="cls-6-3" d="M325.08,199.49s-12.26,20.43-34.04,11.91c0,0-59.23-28.94-98.38,33.7s13.28,109.62,13.28,109.62c0,0,32.99,25.87,73.19,32,40.2,6.13,63.32-17.36,63.32-17.36,0,0,73.53-68.77,4.43-126.98,0,0-30.98-14.98-21.79-42.89Z"/>
    <g id="Seeds">
      <path class="cls-5-3" d="M282.87,220.55c-.75-.25-4.12-1.29-7.55.43-3.38,1.7-5.47,5.4-5.39,9.49.14.44,1.54,4.61,5.66,5.84.33.1,2.85.54,5.07-.23,7.83-2.72,6.86-15.02,2.21-15.53Z"/>
      <path class="cls-5-3" d="M219.39,234.01c-.75-.3-4.12-1.54-7.55.51-3.38,2.02-5.47,6.44-5.39,11.31.14.52,1.54,5.5,5.66,6.97.33.12,2.85.65,5.07-.27,7.83-3.25,6.86-17.9,2.21-18.51Z"/>
      <path class="cls-5-3" d="M272.57,233.07c-.81-.28-4.42-1.42-8.1.47-3.62,1.86-5.87,5.92-5.78,10.39.15.48,1.66,5.05,6.07,6.4.35.11,3.06.6,5.44-.25,8.4-2.98,7.36-16.46,2.37-17.02Z"/>
      <path class="cls-5-3" d="M252.91,228.86c-.82-.28-4.51-1.41-8.25.47-3.69,1.85-5.98,5.9-5.89,10.35.15.48,1.69,5.03,6.18,6.38.36.11,3.11.59,5.54-.25,8.55-2.97,7.5-16.4,2.42-16.95Z"/>
      <path class="cls-5-3" d="M236.88,241.3c-1.31.68-3.27,1.49-5.74,1.76-3.4.37-5.03-.59-6.29.33-1.05.77-1.8,2.83-.36,8.5,2.02,4.53,3.82,5.3,4.92,5.37,1.55.09,2.13-1.24,5.48-3.62,4.34-3.09,6.27-2.91,6.81-4.59.36-1.12.22-3.4-4.81-7.74Z"/>
      <path class="cls-5-3" d="M234.01,224.76c-.75-.25-4.12-1.29-7.55.43-3.38,1.7-5.47,5.4-5.39,9.49.14.44,1.54,4.61,5.66,5.84.33.1,2.85.54,5.07-.23,7.83-2.72,6.86-15.02,2.21-15.53Z"/>
      <path class="cls-5-3" d="M247.11,212.93c-.88-.3-4.83-1.53-8.84.51-3.95,2.01-6.4,6.39-6.3,11.22.16.52,1.81,5.45,6.62,6.91.39.12,3.33.64,5.93-.27,9.16-3.22,8.03-17.76,2.59-18.37Z"/>
      <path class="cls-5-3" d="M221.11,251.8c-1.22.98-3.08,2.18-5.51,2.7-3.35.71-5.1-.45-6.24.86-.95,1.09-1.44,3.85.73,11.24,2.6,5.84,4.5,6.75,5.6,6.76,1.56.01,1.97-1.78,5-5.14,3.94-4.36,5.88-4.26,6.21-6.52.22-1.5-.22-4.5-5.8-9.9Z"/>
      <path class="cls-5-3" d="M258.64,246.52c-.6-.55-3.33-2.88-7.25-2.16-3.87.71-7.37,4.12-9,8.71-.05.54-.47,5.69,2.87,8.5.27.23,2.44,1.6,4.84,1.52,8.47-.31,12.68-14.38,8.54-16.57Z"/>
      <path class="cls-5-3" d="M243.87,257.23c-.76-.6-4.2-3.21-8.85-2.75-4.58.45-8.53,3.69-10.13,8.29-.02.55-.15,5.81,4.06,8.95.34.25,3.04,1.83,5.91,1.91,10.12.31,14.13-13.84,9.01-16.4Z"/>
      <path class="cls-5-3" d="M206.6,269.49c.49-.65,2.56-3.58,1.48-7.42-1.07-3.79-4.78-6.96-9.51-8.15-.54,0-5.71.05-8.2,3.64-.2.29-1.37,2.58-1.06,4.96,1.09,8.41,15.49,11.3,17.29,6.97Z"/>
      <path class="cls-5-3" d="M270.64,269.49c.49-.65,2.56-3.58,1.48-7.42-1.07-3.79-4.78-6.96-9.51-8.15-.54,0-5.71.05-8.2,3.64-.2.29-1.37,2.58-1.06,4.96,1.09,8.41,15.49,11.3,17.29,6.97Z"/>
      <path class="cls-5-3" d="M246.68,285.06c.49-.65,2.56-3.58,1.48-7.42-1.07-3.79-4.78-6.96-9.51-8.15-.54,0-5.71.05-8.2,3.64-.2.29-1.37,2.58-1.06,4.96,1.09,8.41,15.49,11.3,17.29,6.97Z"/>
      <path class="cls-5-3" d="M278.55,264.55c.71.4,3.88,2.09,7.55.52,3.62-1.54,6.3-5.63,6.88-10.47-.07-.54-.78-5.66-4.65-7.67-.31-.16-2.73-1.03-5.06-.42-8.2,2.15-9.24,16.8-4.72,18.04Z"/>
      <path class="cls-5-3" d="M265.91,284.37c.53.61,2.96,3.26,6.95,3,3.93-.25,7.81-3.22,9.97-7.58.12-.53,1.15-5.59-1.84-8.78-.24-.26-2.24-1.88-4.63-2.08-8.45-.7-14.3,12.77-10.44,15.44Z"/>
      <path class="cls-5-3" d="M248.56,266.11c-.67.45-3.6,2.53-3.84,6.52-.24,3.93,2.22,8.15,6.29,10.83.51.18,5.41,1.83,8.94-.73.28-.21,2.14-1.98,2.64-4.33,1.74-8.29-10.89-15.78-14.02-12.28Z"/>
      <path class="cls-5-3" d="M221.11,303.71c-.52.62-2.77,3.42-1.91,7.32.85,3.84,4.37,7.23,9.02,8.69.54.03,5.7.28,8.4-3.16.22-.28,1.52-2.5,1.35-4.89-.6-8.45-14.81-12.18-16.86-7.96Z"/>
      <path class="cls-5-3" d="M241.75,306.6c-.67.45-3.6,2.53-3.84,6.52-.24,3.93,2.22,8.15,6.29,10.83.51.18,5.41,1.83,8.94-.73.28-.21,2.14-1.98,2.64-4.33,1.74-8.29-10.89-15.78-14.02-12.28Z"/>
      <path class="cls-5-3" d="M210.65,289.68c-.67.45-3.6,2.53-3.84,6.52-.24,3.93,2.22,8.15,6.29,10.83.51.18,5.41,1.83,8.94-.73.28-.21,2.14-1.98,2.64-4.33,1.74-8.29-10.89-15.78-14.02-12.28Z"/>
      <path class="cls-5-3" d="M250.64,289.48c-.75-.31-4.11-1.57-7.55.45-3.39,1.99-5.53,6.39-5.48,11.26.13.52,1.5,5.51,5.6,7.01.33.12,2.84.67,5.07-.23,7.86-3.18,7.02-17.84,2.37-18.49Z"/>
      <path class="cls-5-3" d="M227.55,285.04c-.67.45-3.6,2.53-3.84,6.52-.24,3.93,2.22,8.15,6.29,10.83.51.18,5.41,1.83,8.94-.73.28-.21,2.14-1.98,2.64-4.33,1.74-8.29-10.89-15.78-14.02-12.28Z"/>
      <path class="cls-5-3" d="M225.87,319.64c-.52.62-2.77,3.42-1.91,7.32.85,3.84,4.37,7.23,9.02,8.69.54.03,5.7.28,8.4-3.16.22-.28,1.52-2.5,1.35-4.89-.6-8.45-14.81-12.18-16.86-7.96Z"/>
      <path class="cls-5-3" d="M192.64,274.73c-.81-.08-4.39-.34-7.12,2.57-2.69,2.87-3.49,7.7-2.06,12.35.28.46,3,4.86,7.36,5.14.35.02,2.92-.16,4.8-1.66,6.63-5.28,1.67-19.1-2.97-18.4Z"/>
      <path class="cls-5-3" d="M215.59,270.07c-.52.62-2.77,3.42-1.91,7.32.85,3.84,4.37,7.23,9.02,8.69.54.03,5.7.28,8.4-3.16.22-.28,1.52-2.5,1.35-4.89-.6-8.45-14.81-12.18-16.86-7.96Z"/>
      <path class="cls-5-3" d="M199.41,274.49c-.52.62-2.77,3.42-1.91,7.32.85,3.84,4.37,7.23,9.02,8.69.54.03,5.7.28,8.4-3.16.22-.28,1.52-2.5,1.35-4.89-.6-8.45-14.81-12.18-16.86-7.96Z"/>
      <path class="cls-5-3" d="M213.69,329.51c-.52.62-2.77,3.42-1.91,7.32.85,3.84,4.37,7.23,9.02,8.69.54.03,5.7.28,8.4-3.16.22-.28,1.52-2.5,1.35-4.89-.6-8.45-14.81-12.18-16.86-7.96Z"/>
      <path class="cls-5-3" d="M198.84,306.79c-.79-.16-4.33-.78-7.34,1.85-2.96,2.59-4.24,7.31-3.29,12.08.23.49,2.5,5.13,6.81,5.85.35.06,2.92.13,4.94-1.17,7.13-4.59,3.56-18.84-1.12-18.61Z"/>
      <path class="cls-5-3" d="M206.1,309.47c-.52.62-2.77,3.42-1.91,7.32.85,3.84,4.37,7.23,9.02,8.69.54.03,5.7.28,8.4-3.16.22-.28,1.52-2.5,1.35-4.89-.6-8.45-14.81-12.18-16.86-7.96Z"/>
      <path class="cls-5-3" d="M195.57,293.53c-.52.62-2.77,3.42-1.91,7.32.85,3.84,4.37,7.23,9.02,8.69.54.03,5.7.28,8.4-3.16.22-.28,1.52-2.5,1.35-4.89-.6-8.45-14.81-12.18-16.86-7.96Z"/>
      <path class="cls-5-3" d="M194.21,292.48c-.78-.21-4.28-1.04-7.44,1.4-3.11,2.41-4.67,7.04-4.01,11.86.2.5,2.18,5.28,6.44,6.25.34.08,2.91.31,5-.87,7.39-4.15,4.7-18.59,0-18.64Z"/>
      <path class="cls-5-3" d="M209.07,324.68c-.73-.34-4.03-1.78-7.57.07-3.49,1.82-5.84,6.1-6.04,10.97.11.53,1.22,5.58,5.24,7.29.32.14,2.81.81,5.07.03,8.01-2.78,7.9-17.47,3.3-18.35Z"/>
      <path class="cls-5-3" d="M294.49,244.31c.59-.56,3.14-3.09,2.73-7.06-.41-3.91-3.52-7.68-7.97-9.66-.53-.09-5.63-.92-8.7,2.18-.25.25-1.79,2.31-1.89,4.71-.37,8.47,13.33,13.78,15.84,9.83Z"/>
      <path class="cls-5-3" d="M269.08,228.42c.66-.61,3.5-3.41,3.01-7.83-.48-4.35-3.99-8.55-8.98-10.77-.6-.11-6.32-1.06-9.74,2.38-.27.28-1.99,2.55-2.1,5.22-.36,9.41,15,15.39,17.8,11Z"/>
      <path class="cls-5-3" d="M344.23,254.79c.52.6,2.76,3.33,2.46,7.15-.29,3.77-2.93,7.11-6.74,8.58-.46.04-4.85.32-7.55-3.02-.22-.27-1.58-2.43-1.71-4.78-.44-8.28,11.31-12.04,13.54-7.93Z"/>
      <path class="cls-5-3" d="M355.81,318.65c.56.58,2.99,3.23,2.38,7.18-.59,3.89-3.89,7.5-8.43,9.26-.54.07-5.67.65-8.59-2.6-.23-.26-1.68-2.39-1.67-4.79.04-8.48,13.97-13.13,16.3-9.05Z"/>
      <path class="cls-5-3" d="M336.55,269.07c.56.64,2.98,3.56,2.63,7.67-.35,4.05-3.26,7.67-7.43,9.28-.5.04-5.3.38-8.22-3.19-.23-.29-1.71-2.6-1.83-5.13-.42-8.9,12.45-13.04,14.86-8.64Z"/>
      <path class="cls-5-3" d="M347.88,285.67c.57.66,3.01,3.64,2.69,7.81-.32,4.11-3.2,7.76-7.36,9.37-.5.04-5.3.35-8.24-3.31-.24-.29-1.73-2.66-1.87-5.22-.49-9.04,12.34-13.15,14.78-8.65Z"/>
      <path class="cls-5-3" d="M342.43,305.21c-.13,1.47-.14,3.59.55,5.98.94,3.28,2.45,4.43,2.07,5.95-.32,1.27-1.94,2.74-7.73,3.55-4.96-.15-6.36-1.53-6.83-2.52-.67-1.4.34-2.44,1.28-6.44,1.21-5.18.32-6.9,1.68-8.04.9-.76,3.06-1.49,8.99,1.52Z"/>
      <path class="cls-5-3" d="M358.83,301.61c.52.6,2.76,3.33,2.46,7.15-.29,3.77-2.93,7.11-6.74,8.58-.46.04-4.85.32-7.55-3.02-.22-.27-1.58-2.43-1.71-4.78-.44-8.28,11.31-12.04,13.54-7.93Z"/>
      <path class="cls-5-3" d="M364.82,285.01c.61.7,3.24,3.89,2.87,8.37-.36,4.42-3.49,8.34-8,10.08-.54.05-5.73.39-8.9-3.51-.25-.31-1.86-2.84-2-5.59-.49-9.7,13.4-14.16,16.02-9.35Z"/>
      <path class="cls-5-3" d="M338.69,323.78c-.44,1.5-.85,3.68-.42,6.12.61,3.37,2.34,4.55,1.56,6.1-.65,1.3-3.02,2.79-10.68,3.58-6.39-.19-7.95-1.61-8.37-2.63-.61-1.44.9-2.5,2.86-6.58,2.55-5.29,1.72-7.06,3.68-8.21,1.31-.77,4.25-1.5,11.36,1.62Z"/>
      <path class="cls-5-3" d="M329.36,287.05c.73.35,3.93,1.99,4.74,5.9.8,3.85-1.02,8.39-4.66,11.62-.48.25-5.09,2.59-8.96.56-.31-.16-2.41-1.65-3.24-3.91-2.92-7.96,8.51-17.18,12.11-14.18Z"/>
      <path class="cls-5-3" d="M325.05,304.78c.85.47,4.56,2.67,5.9,7.15,1.32,4.41-.19,9.29-3.84,12.52-.5.23-5.32,2.34-9.82-.37-.36-.22-2.84-2.13-4.01-4.75-4.12-9.25,7.46-18.32,11.77-14.54Z"/>
      <path class="cls-5-3" d="M327.8,343.91c.42-.7,2.34-3.73,6.31-4.18,3.91-.44,8.26,1.79,11.14,5.71.21.5,2.11,5.3-.27,8.97-.19.29-1.87,2.24-4.19,2.86-8.19,2.17-16.32-10.06-13-13.36Z"/>
      <path class="cls-5-3" d="M303.56,284.63c.42-.7,2.34-3.73,6.31-4.18,3.91-.44,8.26,1.79,11.14,5.71.21.5,2.11,5.3-.27,8.97-.19.29-1.87,2.24-4.19,2.86-8.19,2.17-16.32-10.06-13-13.36Z"/>
      <path class="cls-5-3" d="M298.22,312.71c.42-.7,2.34-3.73,6.31-4.18,3.91-.44,8.26,1.79,11.14,5.71.21.5,2.11,5.3-.27,8.97-.19.29-1.87,2.24-4.19,2.86-8.19,2.17-16.32-10.06-13-13.36Z"/>
      <path class="cls-5-3" d="M305.14,275.45c-.64-.5-3.4-2.8-3.34-6.79.06-3.93,2.83-7.96,7.08-10.33.52-.14,5.53-1.42,8.86,1.4.27.23,1.99,2.14,2.3,4.52,1.11,8.4-12.05,14.91-14.91,11.19Z"/>
      <path class="cls-5-3" d="M291.58,294.64c-.77-.26-4.14-1.51-5.41-5.29-1.25-3.73.02-8.45,3.25-12.09.44-.31,4.74-3.18,8.83-1.62.33.12,2.59,1.36,3.68,3.5,3.84,7.55-6.41,18.07-10.34,15.51Z"/>
      <path class="cls-5-3" d="M315.05,303.79c-.16.79-.98,4.29-4.58,6.02-3.54,1.71-8.39,1.03-12.4-1.72-.36-.4-3.74-4.31-2.71-8.56.08-.34,1.03-2.74,3.01-4.08,7.02-4.75,18.73,4.11,16.68,8.33Z"/>
      <path class="cls-5-3" d="M290.64,343.43c-.37.72-2.12,3.86-6.06,4.54-3.88.67-8.35-1.31-11.46-5.06-.23-.49-2.42-5.17-.25-8.97.17-.3,1.74-2.35,4.02-3.1,8.05-2.65,16.88,9.09,13.75,12.59Z"/>
      <path class="cls-5-3" d="M280.15,325.42c-.16.79-.98,4.29-4.58,6.02-3.54,1.71-8.39,1.03-12.4-1.72-.36-.4-3.74-4.31-2.71-8.56.08-.34,1.03-2.74,3.01-4.08,7.02-4.75,18.73,4.11,16.68,8.33Z"/>
      <path class="cls-5-3" d="M307.58,347.8c-.16.79-.98,4.29-4.58,6.02-3.54,1.71-8.39,1.03-12.4-1.72-.36-.4-3.74-4.31-2.71-8.56.08-.34,1.03-2.74,3.01-4.08,7.02-4.75,18.73,4.11,16.68,8.33Z"/>
      <path class="cls-5-3" d="M292.64,310.72c.57.58,3.01,3.21,2.45,7.16-.56,3.89-3.82,7.53-8.35,9.34-.53.07-5.67.7-8.61-2.53-.24-.26-1.7-2.38-1.71-4.78-.03-8.48,13.86-13.25,16.22-9.19Z"/>
      <path class="cls-5-3" d="M305.48,330.4c-.16.79-.98,4.29-4.58,6.02-3.54,1.71-8.39,1.03-12.4-1.72-.36-.4-3.74-4.31-2.71-8.56.08-.34,1.03-2.74,3.01-4.08,7.02-4.75,18.73,4.11,16.68,8.33Z"/>
      <path class="cls-5-3" d="M274.09,345.05c-.37.72-2.12,3.86-6.06,4.54-3.88.67-8.35-1.31-11.46-5.06-.23-.49-2.42-5.17-.25-8.97.17-.3,1.74-2.35,4.02-3.1,8.05-2.65,16.88,9.09,13.75,12.59Z"/>
      <path class="cls-5-3" d="M328.23,358.82c.38.72,1.98,3.93.31,7.56-1.64,3.57-5.8,6.14-10.65,6.58-.53-.08-5.63-.94-7.54-4.87-.15-.31-.95-2.76-.28-5.07,2.37-8.14,17.05-8.77,18.16-4.21Z"/>
      <path class="cls-5-3" d="M323.87,335.81c-.37.72-2.12,3.86-6.06,4.54-3.88.67-8.35-1.31-11.46-5.06-.23-.49-2.42-5.17-.25-8.97.17-.3,1.74-2.35,4.02-3.1,8.05-2.65,16.88,9.09,13.75,12.59Z"/>
      <path class="cls-5-3" d="M325.89,352.46c-.37.72-2.12,3.86-6.06,4.54-3.88.67-8.35-1.31-11.46-5.06-.23-.49-2.42-5.17-.25-8.97.17-.3,1.74-2.35,4.02-3.1,8.05-2.65,16.88,9.09,13.75,12.59Z"/>
      <path class="cls-5-3" d="M269.56,360.07c-.37.72-2.12,3.86-6.06,4.54-3.88.67-8.35-1.31-11.46-5.06-.23-.49-2.42-5.17-.25-8.97.17-.3,1.74-2.35,4.02-3.1,8.05-2.65,16.88,9.09,13.75,12.59Z"/>
      <path class="cls-5-3" d="M296.21,365.21c.45.67,2.36,3.72,1.07,7.49-1.28,3.72-5.16,6.69-9.94,7.61-.54-.03-5.7-.37-7.99-4.09-.18-.3-1.23-2.65-.79-5.01,1.55-8.33,16.09-10.43,17.65-6.01Z"/>
      <path class="cls-5-3" d="M290.99,359.5c-.37.72-2.12,3.86-6.06,4.54-3.88.67-8.35-1.31-11.46-5.06-.23-.49-2.42-5.17-.25-8.97.17-.3,1.74-2.35,4.02-3.1,8.05-2.65,16.88,9.09,13.75,12.59Z"/>
      <path class="cls-5-3" d="M309.72,363.22c-.37.72-2.12,3.86-6.06,4.54-3.88.67-8.35-1.31-11.46-5.06-.23-.49-2.42-5.17-.25-8.97.17-.3,1.74-2.35,4.02-3.1,8.05-2.65,16.88,9.09,13.75,12.59Z"/>
      <path class="cls-5-3" d="M311.21,364.08c.49.65,2.58,3.57,1.52,7.41-1.05,3.79-4.75,6.99-9.46,8.2-.54,0-5.71-.02-8.22-3.6-.2-.29-1.38-2.57-1.09-4.96,1.04-8.41,15.43-11.38,17.25-7.06Z"/>
      <path class="cls-5-3" d="M275.79,362.52c.6.55,3.17,3.05,2.8,7.03-.36,3.92-3.44,7.72-7.87,9.74-.53.1-5.62.98-8.73-2.09-.25-.25-1.82-2.29-1.95-4.69-.46-8.46,13.18-13.93,15.74-10Z"/>
      <path class="cls-5-3" d="M317.85,253.03c.29-.76,1.67-4.07,5.5-5.2,3.78-1.11,8.44.35,11.96,3.72.29.46,2.99,4.87,1.27,8.88-.14.32-1.46,2.53-3.64,3.54-7.7,3.54-17.8-7.12-15.09-10.95Z"/>
      <path class="cls-5-3" d="M342.17,270.54c.32-.84,1.83-4.53,6.1-5.75,4.21-1.21,9.42.46,13.37,4.24.33.51,3.37,5.45,1.48,9.91-.15.36-1.61,2.81-4.04,3.92-8.57,3.9-19.92-8.06-16.92-12.31Z"/>
    </g>
  </g>
</svg>