<?xml version="1.0" encoding="UTF-8"?>
<svg id="Layer_2" data-name="Layer 2" xmlns="http://www.w3.org/2000/svg" viewBox="0 0 577.84 580">
  <defs>
    <style>
      .cls-1-5 {
        fill: #800020;
      }
    </style>
  </defs>
  <g id="search-icon">
    <path class="cls-1-5" d="M572.88,550.64l-176.27-176.27c34.55-39.7,55.48-91.56,55.48-148.32C452.09,101.2,350.89,0,226.05,0S0,101.2,0,226.05s101.2,226.05,226.05,226.05c55.64,0,106.6-20.14,145.99-53.48l176.43,176.43c6.6,6.6,17.29,6.6,23.86,0l.55-.55c6.6-6.6,6.6-17.29,0-23.86h0ZM226.05,416.26c-105.04,0-190.21-85.15-190.21-190.21S121.01,35.83,226.05,35.83s190.21,85.15,190.21,190.21-85.15,190.21-190.21,190.21Z"/>
    <path class="cls-1-5" d="M345.3,139.97c-17.81-22.3-46.44-45.94-74-54.96l-.22-.08c-15.31-4.82-52.11-12.82-61.75,1.37-3.04,4.55-3.01,10.36-.55,15.31,4.03,8.14,12.44,11.18,21.45,13.1,17.31,2.88,36.6,8.11,51.4,16.68,20.03,10.49,34.05,29.48,42.98,49.94,6.66,14.49,7.92,27.34,11.48,41.94,1.95,6.99,5.4,13.73,10.6,16.88,6.19,3.89,14.47,2.25,19.2-3.73,3.01-3.73,4.79-8.88,5.56-14.16,2.63-25.92-9.89-61.12-26.14-82.3h-.03Z"/>
  </g>
</svg>