<?xml version="1.0" encoding="UTF-8"?>
<svg id="Layer_2" data-name="Layer 2" xmlns="http://www.w3.org/2000/svg" viewBox="0 0 674.25 627">
  <defs>
    <style>
      .cls-1-6 {
        fill: #800020;
        stroke: #800020;
        stroke-width: 2.34px;
      }
    </style>
  </defs>
  <g id="shopping-cart">
    <path id="shopping-cart-2" data-name="shopping-cart" class="cls-1-6" d="M140.41,1.37c2.58-.38,5.08-.19,7.45.47h.05s.05.03.05.03c7.89,1.48,13.83,8.38,13.83,16.68v2.19c0,.12,0,.26-.03.45-.01.17-.03.4-.03.64v.17s8.12,55.22,8.12,55.22l.15,1h484.29c11.5,0,20.51,11.89,18.4,25.17l-41.46,260.48c-1.62,10.25-9.47,17.54-18.4,17.54H194.72c-1.17,0-2.35-.14-3.47-.38l-.21-.04-.21.03c-20.09,2.84-35.56,18.86-36.99,37.12l-.06.87c-.58,10.98,4.14,20.33,10.85,27.5,6.7,7.15,15.45,12.2,23.14,14.61h0c1.85.59,3.78.87,5.71.87h5.56c.94-.16,1.87-.26,2.81-.26h453.53c9.78,0,17.68,7.91,17.68,17.68s-7.91,17.68-17.68,17.68h-84.58l-.56,2.2c20.9,11.46,35.08,33.64,35.08,59.17,0,37.21-30.19,67.4-67.4,67.4s-67.39-30.19-67.39-67.4c0-25.52,14.16-47.71,35.08-59.17l-.56-2.2h-187.11l-.56,2.2c20.9,11.46,35.08,33.64,35.08,59.17,0,37.21-30.19,67.4-67.39,67.4s-67.4-30.19-67.4-67.4c0-25.52,14.16-47.71,35.08-59.17l-.56-2.2h-50.36c-.12,0-.24,0-.41-.02-.16-.01-.38-.04-.62-.04h-.04c-5.54.18-11.92-.17-18.88-1.56h0c-7.52-1.48-29.92-6.34-46.66-27.08-3.86-4.78-16.34-21.5-16.63-45.96,0-1.45.19-37.07,28.37-59.63h0c8.2-6.56,16.72-10.36,25.29-12.75l.99-.28-.15-1.02L127.61,38.71l-.15-1H18.15c-9.37,0-16.98-7.59-16.98-16.98v-2.19C1.17,9.17,8.76,1.56,18.15,1.55h121.36l.13-.03c.38-.08.51-.13.71-.15h.03s.03,0,.03,0ZM285.07,516.27c-23.28,0-42.16,18.88-42.16,42.16s18.88,42.16,42.16,42.16,42.15-18.88,42.15-42.16-18.88-42.16-42.15-42.16ZM537.91,516.27c-23.28,0-42.16,18.88-42.16,42.16s18.88,42.16,42.16,42.16,42.16-18.88,42.16-42.16c0-23.28-18.88-42.16-42.16-42.16ZM175.94,114.44l.08.58,31.36,218.03h0s1.61,10.87,1.61,10.87l.15,1.03,1.04-.03c4.23-.11,8.24,0,12.08.23h.04s371.7,0,371.7,0l.16-.97,39.09-229.15.23-1.37H176.73l-.79.79Z"/>
  </g>
</svg>