<?xml version="1.0" encoding="UTF-8"?>
<svg id="Layer_2" data-name="Layer 2" xmlns="http://www.w3.org/2000/svg" viewBox="0 0 156.33 661.05">
  <defs>
    <style>
      .cls-1-4 {
        fill: #c65728;
      }
    </style>
  </defs>
  <g id="wheat-stalk">
    <path id="Stalk" class="cls-1-4" d="M79.27,120.22l-4.84.88s-2.2,43.82-1.1,45.58l-.31,132.11v124.18l.97,78.39v64.73l2.64,94.96s4.18-1.48,11.67,0l-1.98-102.44-1.76-169.54-.88-150.39-.66-66.94-2.86-48.22-.88-3.3Z"/>
    <path class="cls-1-4" d="M68.26,0s-11.67,56.81-12.77,64.08-.22,27.08,9.69,40.51l7.84,13.21s8.01,1.98,10-7.05c0,0,9.69-27.08,7.27-39.85S68.26,0,68.26,0Z"/>
    <path class="cls-1-4" d="M5.28,69.36s15.41,46.9,30.17,57.69c0,0,14.31,16.07,33.25,16.29l1.32-1.98s-2.42-20.48-22.46-40.95S5.28,69.36,5.28,69.36Z"/>
    <path class="cls-1-4" d="M151.05,45.58s-57.25,49.54-58.35,66.28c0,0-6.39,30.39-7.93,31.49-1.54,1.1,42.72-15.41,50.2-42.72,7.49-27.3,16.07-55.05,16.07-55.05Z"/>
    <path id="Left" class="cls-1-4" d="M0,121.55s18.06,44.48,34.57,53.94,21.14,10.57,34.35,10.79c0,0-5.06-24.88-22.68-36.11C28.62,138.94,0,121.55,0,121.55Z"/>
    <path id="Right" class="cls-1-4" d="M153.69,116.04s-38.75,18.06-49.76,32.81-18.28,37.43-18.28,37.43c0,0,17.61,1.76,40.95-21.8,0,0,16.51-22.46,27.08-48.44Z"/>
    <path id="Left-2" data-name="Left" class="cls-1-4" d="M0,168s18.06,44.48,34.57,53.94c16.51,9.47,21.14,10.57,34.35,10.79,0,0-5.06-24.88-22.68-36.11C28.62,185.39,0,168,0,168Z"/>
    <path id="Left-3" data-name="Left" class="cls-1-4" d="M3.19,213.8s18.06,44.48,34.57,53.94,21.14,10.57,34.35,10.79c0,0-5.06-24.88-22.68-36.11-17.61-11.23-46.24-28.62-46.24-28.62Z"/>
    <path id="Left-4" data-name="Left" class="cls-1-4" d="M3.19,255.33s18.06,44.48,34.57,53.94,21.14,10.57,34.35,10.79c0,0-5.06-24.88-22.68-36.11-17.61-11.23-46.24-28.62-46.24-28.62Z"/>
    <path id="Left-5" data-name="Left" class="cls-1-4" d="M0,298.16s18.06,44.48,34.57,53.94c16.51,9.47,21.14,10.57,34.35,10.79,0,0-5.06-24.88-22.68-36.11-17.61-11.23-46.24-28.62-46.24-28.62Z"/>
    <path id="Left-6" data-name="Left" class="cls-1-4" d="M3.19,342.66s18.06,44.48,34.57,53.94c16.51,9.47,21.14,10.57,34.35,10.79,0,0-5.06-24.88-22.68-36.11-17.61-11.23-46.24-28.62-46.24-28.62Z"/>
    <path id="Left-7" data-name="Left" class="cls-1-4" d="M3.19,387.35s18.06,44.48,34.57,53.94,21.14,10.57,34.35,10.79c0,0-5.06-24.88-22.68-36.11-17.61-11.23-46.24-28.62-46.24-28.62Z"/>
    <path id="Left-8" data-name="Left" class="cls-1-4" d="M3.19,433.58s18.06,44.48,34.57,53.94,21.14,10.57,34.35,10.79c0,0-5.06-24.88-22.68-36.11-17.61-11.23-46.24-28.62-46.24-28.62Z"/>
    <path id="Left-9" data-name="Left" class="cls-1-4" d="M3.19,479.82s18.06,44.48,34.57,53.94,21.14,10.57,34.35,10.79c0,0-5.06-24.88-22.68-36.11-17.61-11.23-46.24-28.62-46.24-28.62Z"/>
    <path id="Right-2" data-name="Right" class="cls-1-4" d="M156.33,159.38s-38.75,18.06-49.76,32.81c-11.01,14.75-18.28,37.43-18.28,37.43,0,0,17.61,1.76,40.95-21.8,0,0,16.51-22.46,27.08-48.44Z"/>
    <path id="Right-3" data-name="Right" class="cls-1-4" d="M156.33,203.4s-38.75,18.06-49.76,32.81c-11.01,14.75-18.28,37.43-18.28,37.43,0,0,17.61,1.76,40.95-21.8,0,0,16.51-22.46,27.08-48.44Z"/>
    <path id="Right-4" data-name="Right" class="cls-1-4" d="M156.33,245.63s-38.75,18.06-49.76,32.81c-11.01,14.75-18.28,37.43-18.28,37.43,0,0,17.61,1.76,40.95-21.8,0,0,16.51-22.46,27.08-48.44Z"/>
    <path id="Right-5" data-name="Right" class="cls-1-4" d="M153.69,290.76s-38.75,18.06-49.76,32.81-18.28,37.43-18.28,37.43c0,0,17.61,1.76,40.95-21.8,0,0,16.51-22.46,27.08-48.44Z"/>
    <path id="Right-6" data-name="Right" class="cls-1-4" d="M156.33,337.12s-38.75,18.06-49.76,32.81-18.28,37.43-18.28,37.43c0,0,17.61,1.76,40.95-21.8,0,0,16.51-22.46,27.08-48.44Z"/>
    <path id="Right-7" data-name="Right" class="cls-1-4" d="M156.33,381.81s-38.75,18.06-49.76,32.81-18.28,37.43-18.28,37.43c0,0,17.61,1.76,40.95-21.8,0,0,16.51-22.46,27.08-48.44Z"/>
    <path id="Right-8" data-name="Right" class="cls-1-4" d="M156.33,428.05s-38.75,18.06-49.76,32.81-18.28,37.43-18.28,37.43c0,0,17.61,1.76,40.95-21.8,0,0,16.51-22.46,27.08-48.44Z"/>
    <path id="Right-9" data-name="Right" class="cls-1-4" d="M156.33,477.06s-38.75,18.06-49.76,32.81c-11.01,14.75-18.28,37.43-18.28,37.43,0,0,17.61,1.76,40.95-21.8,0,0,16.51-22.46,27.08-48.44Z"/>
  </g>
</svg>